<mxfile host="app.diagrams.net" agent="Mozilla/5.0 (X11; Linux x86_64; rv:141.0) Gecko/20100101 Firefox/141.0" version="28.1.0">
  <diagram id="C5RBs43oDa-KdzZeNtuy" name="Page-1">
    <mxGraphModel dx="1426" dy="772" grid="1" gridSize="10" guides="1" tooltips="1" connect="1" arrows="1" fold="1" page="1" pageScale="1" pageWidth="827" pageHeight="1169" math="0" shadow="0">
      <root>
        <mxCell id="WIyWlLk6GJQsqaUBKTNV-0" />
        <mxCell id="WIyWlLk6GJQsqaUBKTNV-1" parent="WIyWlLk6GJQsqaUBKTNV-0" />
        <mxCell id="dsBlmj7pCga_AARecVS5-47" value="" style="rounded=0;whiteSpace=wrap;html=1;strokeColor=none;fillColor=light-dark(#8ff0a4, #ededed);" parent="WIyWlLk6GJQsqaUBKTNV-1" vertex="1">
          <mxGeometry x="270" y="750" width="380" height="210" as="geometry" />
        </mxCell>
        <mxCell id="dsBlmj7pCga_AARecVS5-46" value="" style="rounded=0;whiteSpace=wrap;html=1;strokeColor=none;fillColor=light-dark(#99c1f1, #ededed);" parent="WIyWlLk6GJQsqaUBKTNV-1" vertex="1">
          <mxGeometry x="270" y="320" width="380" height="410" as="geometry" />
        </mxCell>
        <mxCell id="dsBlmj7pCga_AARecVS5-187" value="" style="rounded=0;whiteSpace=wrap;html=1;fillColor=none;dashed=1;dashPattern=8 8;" parent="WIyWlLk6GJQsqaUBKTNV-1" vertex="1">
          <mxGeometry x="360" y="400" width="198.25" height="311" as="geometry" />
        </mxCell>
        <mxCell id="dsBlmj7pCga_AARecVS5-116" value="" style="rounded=0;whiteSpace=wrap;html=1;strokeColor=none;fillColor=light-dark(#99c1f1, #ededed);" parent="WIyWlLk6GJQsqaUBKTNV-1" vertex="1">
          <mxGeometry x="270" y="979.5" width="380" height="510.5" as="geometry" />
        </mxCell>
        <mxCell id="9yJzk4kOrjAoIO8Awk0b-27" style="edgeStyle=orthogonalEdgeStyle;rounded=0;orthogonalLoop=1;jettySize=auto;html=1;exitX=0.5;exitY=1;exitDx=0;exitDy=0;entryX=0.5;entryY=0;entryDx=0;entryDy=0;" edge="1" parent="WIyWlLk6GJQsqaUBKTNV-1" source="dsBlmj7pCga_AARecVS5-0" target="dsBlmj7pCga_AARecVS5-1">
          <mxGeometry relative="1" as="geometry" />
        </mxCell>
        <mxCell id="dsBlmj7pCga_AARecVS5-0" value="Power on" style="ellipse;whiteSpace=wrap;html=1;" parent="WIyWlLk6GJQsqaUBKTNV-1" vertex="1">
          <mxGeometry x="411.5" y="80" width="70" height="40" as="geometry" />
        </mxCell>
        <mxCell id="dsBlmj7pCga_AARecVS5-12" style="edgeStyle=orthogonalEdgeStyle;rounded=0;orthogonalLoop=1;jettySize=auto;html=1;exitX=0.5;exitY=1;exitDx=0;exitDy=0;entryX=0.5;entryY=0;entryDx=0;entryDy=0;" parent="WIyWlLk6GJQsqaUBKTNV-1" source="dsBlmj7pCga_AARecVS5-1" target="dsBlmj7pCga_AARecVS5-5" edge="1">
          <mxGeometry relative="1" as="geometry" />
        </mxCell>
        <mxCell id="dsBlmj7pCga_AARecVS5-1" value="Load firmware/&lt;br&gt;bootloader" style="rounded=1;whiteSpace=wrap;html=1;fontSize=12;glass=0;strokeWidth=1;shadow=0;" parent="WIyWlLk6GJQsqaUBKTNV-1" vertex="1">
          <mxGeometry x="386.5" y="140" width="120" height="40" as="geometry" />
        </mxCell>
        <mxCell id="dsBlmj7pCga_AARecVS5-10" style="edgeStyle=orthogonalEdgeStyle;rounded=0;orthogonalLoop=1;jettySize=auto;html=1;exitX=0.5;exitY=1;exitDx=0;exitDy=0;entryX=0.5;entryY=0;entryDx=0;entryDy=0;" parent="WIyWlLk6GJQsqaUBKTNV-1" source="dsBlmj7pCga_AARecVS5-5" target="dsBlmj7pCga_AARecVS5-8" edge="1">
          <mxGeometry relative="1" as="geometry" />
        </mxCell>
        <mxCell id="dsBlmj7pCga_AARecVS5-5" value="Load Linux kernel" style="rounded=1;whiteSpace=wrap;html=1;fontSize=12;glass=0;strokeWidth=1;shadow=0;" parent="WIyWlLk6GJQsqaUBKTNV-1" vertex="1">
          <mxGeometry x="386.5" y="200" width="120" height="40" as="geometry" />
        </mxCell>
        <mxCell id="dsBlmj7pCga_AARecVS5-15" style="edgeStyle=orthogonalEdgeStyle;rounded=0;orthogonalLoop=1;jettySize=auto;html=1;exitX=0.5;exitY=1;exitDx=0;exitDy=0;entryX=0.5;entryY=0;entryDx=0;entryDy=0;" parent="WIyWlLk6GJQsqaUBKTNV-1" source="dsBlmj7pCga_AARecVS5-8" target="dsBlmj7pCga_AARecVS5-14" edge="1">
          <mxGeometry relative="1" as="geometry" />
        </mxCell>
        <mxCell id="dsBlmj7pCga_AARecVS5-8" value="Load RAM disk" style="rounded=1;whiteSpace=wrap;html=1;fontSize=12;glass=0;strokeWidth=1;shadow=0;" parent="WIyWlLk6GJQsqaUBKTNV-1" vertex="1">
          <mxGeometry x="386.5" y="260" width="120" height="40" as="geometry" />
        </mxCell>
        <mxCell id="9yJzk4kOrjAoIO8Awk0b-20" style="edgeStyle=orthogonalEdgeStyle;rounded=0;orthogonalLoop=1;jettySize=auto;html=1;entryX=0.5;entryY=0;entryDx=0;entryDy=0;" edge="1" parent="WIyWlLk6GJQsqaUBKTNV-1" source="dsBlmj7pCga_AARecVS5-14" target="dsBlmj7pCga_AARecVS5-19">
          <mxGeometry relative="1" as="geometry" />
        </mxCell>
        <mxCell id="dsBlmj7pCga_AARecVS5-14" value="Launch init process" style="rounded=1;whiteSpace=wrap;html=1;fontSize=12;glass=0;strokeWidth=1;shadow=0;" parent="WIyWlLk6GJQsqaUBKTNV-1" vertex="1">
          <mxGeometry x="386.5" y="340" width="120" height="40" as="geometry" />
        </mxCell>
        <mxCell id="9yJzk4kOrjAoIO8Awk0b-19" style="edgeStyle=orthogonalEdgeStyle;rounded=0;orthogonalLoop=1;jettySize=auto;html=1;exitX=0.5;exitY=1;exitDx=0;exitDy=0;entryX=0.5;entryY=0;entryDx=0;entryDy=0;" edge="1" parent="WIyWlLk6GJQsqaUBKTNV-1" source="dsBlmj7pCga_AARecVS5-19" target="dsBlmj7pCga_AARecVS5-22">
          <mxGeometry relative="1" as="geometry" />
        </mxCell>
        <mxCell id="dsBlmj7pCga_AARecVS5-19" value="Start dracut cleanup&lt;br&gt;hook" style="rounded=1;whiteSpace=wrap;html=1;fontSize=12;glass=0;strokeWidth=1;shadow=0;" parent="WIyWlLk6GJQsqaUBKTNV-1" vertex="1">
          <mxGeometry x="386.5" y="420" width="120" height="40" as="geometry" />
        </mxCell>
        <mxCell id="dsBlmj7pCga_AARecVS5-23" style="edgeStyle=orthogonalEdgeStyle;rounded=0;orthogonalLoop=1;jettySize=auto;html=1;exitX=0.5;exitY=1;exitDx=0;exitDy=0;entryX=0.5;entryY=0;entryDx=0;entryDy=0;" parent="WIyWlLk6GJQsqaUBKTNV-1" source="dsBlmj7pCga_AARecVS5-22" edge="1" target="dsBlmj7pCga_AARecVS5-25">
          <mxGeometry relative="1" as="geometry">
            <mxPoint x="418.05952380952385" y="510" as="targetPoint" />
          </mxGeometry>
        </mxCell>
        <mxCell id="9yJzk4kOrjAoIO8Awk0b-25" style="edgeStyle=orthogonalEdgeStyle;rounded=0;orthogonalLoop=1;jettySize=auto;html=1;exitX=1;exitY=0.5;exitDx=0;exitDy=0;entryX=1;entryY=0.5;entryDx=0;entryDy=0;" edge="1" parent="WIyWlLk6GJQsqaUBKTNV-1" source="dsBlmj7pCga_AARecVS5-22" target="dsBlmj7pCga_AARecVS5-27">
          <mxGeometry relative="1" as="geometry">
            <Array as="points">
              <mxPoint x="540" y="530" />
              <mxPoint x="540" y="685" />
            </Array>
          </mxGeometry>
        </mxCell>
        <mxCell id="dsBlmj7pCga_AARecVS5-22" value="&lt;div&gt;wiperam&lt;/div&gt;&lt;div&gt;== skip&lt;/div&gt;" style="rhombus;whiteSpace=wrap;html=1;" parent="WIyWlLk6GJQsqaUBKTNV-1" vertex="1">
          <mxGeometry x="406.5" y="490" width="80" height="80" as="geometry" />
        </mxCell>
        <mxCell id="dsBlmj7pCga_AARecVS5-24" value="no" style="text;html=1;align=center;verticalAlign=middle;resizable=0;points=[];autosize=1;strokeColor=none;fillColor=none;" parent="WIyWlLk6GJQsqaUBKTNV-1" vertex="1">
          <mxGeometry x="400" y="560" width="40" height="30" as="geometry" />
        </mxCell>
        <mxCell id="dsBlmj7pCga_AARecVS5-26" style="edgeStyle=orthogonalEdgeStyle;rounded=0;orthogonalLoop=1;jettySize=auto;html=1;exitX=0.5;exitY=1;exitDx=0;exitDy=0;entryX=0.5;entryY=0;entryDx=0;entryDy=0;" parent="WIyWlLk6GJQsqaUBKTNV-1" source="dsBlmj7pCga_AARecVS5-25" edge="1" target="dsBlmj7pCga_AARecVS5-27">
          <mxGeometry relative="1" as="geometry">
            <mxPoint x="418.05952380952385" y="570" as="targetPoint" />
          </mxGeometry>
        </mxCell>
        <mxCell id="9yJzk4kOrjAoIO8Awk0b-26" style="edgeStyle=orthogonalEdgeStyle;rounded=0;orthogonalLoop=1;jettySize=auto;html=1;exitX=1;exitY=0.5;exitDx=0;exitDy=0;entryX=1;entryY=0;entryDx=0;entryDy=0;dashed=1;dashPattern=1 2;" edge="1" parent="WIyWlLk6GJQsqaUBKTNV-1" source="dsBlmj7pCga_AARecVS5-25" target="dsBlmj7pCga_AARecVS5-128">
          <mxGeometry relative="1" as="geometry">
            <Array as="points">
              <mxPoint x="526" y="620" />
              <mxPoint x="526" y="770" />
              <mxPoint x="488" y="770" />
            </Array>
          </mxGeometry>
        </mxCell>
        <mxCell id="dsBlmj7pCga_AARecVS5-25" value="Run need_shutdown" style="rounded=1;whiteSpace=wrap;html=1;fontSize=12;glass=0;strokeWidth=1;shadow=0;" parent="WIyWlLk6GJQsqaUBKTNV-1" vertex="1">
          <mxGeometry x="386.5" y="600" width="120" height="40" as="geometry" />
        </mxCell>
        <mxCell id="9yJzk4kOrjAoIO8Awk0b-24" style="edgeStyle=orthogonalEdgeStyle;rounded=0;orthogonalLoop=1;jettySize=auto;html=1;exitX=0.5;exitY=1;exitDx=0;exitDy=0;entryX=0.5;entryY=0;entryDx=0;entryDy=0;" edge="1" parent="WIyWlLk6GJQsqaUBKTNV-1" source="dsBlmj7pCga_AARecVS5-27" target="dsBlmj7pCga_AARecVS5-128">
          <mxGeometry relative="1" as="geometry" />
        </mxCell>
        <mxCell id="dsBlmj7pCga_AARecVS5-27" value="Switch to root" style="rounded=1;whiteSpace=wrap;html=1;fontSize=12;glass=0;strokeWidth=1;shadow=0;" parent="WIyWlLk6GJQsqaUBKTNV-1" vertex="1">
          <mxGeometry x="389.75" y="670" width="113.5" height="30" as="geometry" />
        </mxCell>
        <mxCell id="dsBlmj7pCga_AARecVS5-29" value="yes" style="text;html=1;align=center;verticalAlign=middle;resizable=0;points=[];autosize=1;strokeColor=none;fillColor=none;" parent="WIyWlLk6GJQsqaUBKTNV-1" vertex="1">
          <mxGeometry x="486.5" y="500" width="40" height="30" as="geometry" />
        </mxCell>
        <mxCell id="dsBlmj7pCga_AARecVS5-37" style="edgeStyle=orthogonalEdgeStyle;rounded=0;orthogonalLoop=1;jettySize=auto;html=1;exitX=0;exitY=0.5;exitDx=0;exitDy=0;exitPerimeter=0;entryX=0;entryY=0.5;entryDx=0;entryDy=0;endArrow=none;startFill=0;dashed=1;dashPattern=1 2;" parent="WIyWlLk6GJQsqaUBKTNV-1" source="dsBlmj7pCga_AARecVS5-36" target="dsBlmj7pCga_AARecVS5-25" edge="1">
          <mxGeometry relative="1" as="geometry" />
        </mxCell>
        <mxCell id="dsBlmj7pCga_AARecVS5-36" value="" style="strokeWidth=2;html=1;shape=mxgraph.flowchart.annotation_2;align=left;labelPosition=right;pointerEvents=1;rotation=-180;" parent="WIyWlLk6GJQsqaUBKTNV-1" vertex="1">
          <mxGeometry x="210.5" y="585" width="45" height="70" as="geometry" />
        </mxCell>
        <mxCell id="dsBlmj7pCga_AARecVS5-38" value="&lt;div&gt;need_shutdown will&lt;/div&gt;&lt;div&gt;create&lt;/div&gt;&lt;div&gt;/run/initramfs/.need_shutdown&lt;br&gt;&lt;/div&gt;" style="text;html=1;align=center;verticalAlign=middle;resizable=0;points=[];autosize=1;strokeColor=none;fillColor=default;" parent="WIyWlLk6GJQsqaUBKTNV-1" vertex="1">
          <mxGeometry x="50" y="589" width="180" height="60" as="geometry" />
        </mxCell>
        <mxCell id="dsBlmj7pCga_AARecVS5-180" style="edgeStyle=orthogonalEdgeStyle;rounded=0;orthogonalLoop=1;jettySize=auto;html=1;exitX=0.5;exitY=1;exitDx=0;exitDy=0;entryX=0.5;entryY=0;entryDx=0;entryDy=0;" parent="WIyWlLk6GJQsqaUBKTNV-1" source="dsBlmj7pCga_AARecVS5-75" target="dsBlmj7pCga_AARecVS5-87" edge="1">
          <mxGeometry relative="1" as="geometry">
            <mxPoint x="445" y="1014" as="targetPoint" />
          </mxGeometry>
        </mxCell>
        <mxCell id="dsBlmj7pCga_AARecVS5-75" value="Restore RAM disk" style="rounded=1;whiteSpace=wrap;html=1;fontSize=12;glass=0;strokeWidth=1;shadow=0;" parent="WIyWlLk6GJQsqaUBKTNV-1" vertex="1">
          <mxGeometry x="386.5" y="890" width="120" height="40" as="geometry" />
        </mxCell>
        <mxCell id="dsBlmj7pCga_AARecVS5-85" value="Inside RAM disk" style="text;html=1;align=center;verticalAlign=middle;resizable=0;points=[];autosize=1;strokeColor=none;fillColor=none;" parent="WIyWlLk6GJQsqaUBKTNV-1" vertex="1">
          <mxGeometry x="270" y="320" width="110" height="30" as="geometry" />
        </mxCell>
        <mxCell id="dsBlmj7pCga_AARecVS5-86" value="Inside rootfs" style="text;html=1;align=center;verticalAlign=middle;resizable=0;points=[];autosize=1;strokeColor=none;fillColor=none;" parent="WIyWlLk6GJQsqaUBKTNV-1" vertex="1">
          <mxGeometry x="270" y="750" width="90" height="30" as="geometry" />
        </mxCell>
        <mxCell id="dsBlmj7pCga_AARecVS5-92" style="edgeStyle=orthogonalEdgeStyle;rounded=0;orthogonalLoop=1;jettySize=auto;html=1;exitX=0.5;exitY=1;exitDx=0;exitDy=0;entryX=0.5;entryY=0;entryDx=0;entryDy=0;" parent="WIyWlLk6GJQsqaUBKTNV-1" source="dsBlmj7pCga_AARecVS5-87" target="dsBlmj7pCga_AARecVS5-89" edge="1">
          <mxGeometry relative="1" as="geometry" />
        </mxCell>
        <mxCell id="dsBlmj7pCga_AARecVS5-87" value="Start dracut cleanup&lt;br&gt;hook" style="rounded=1;whiteSpace=wrap;html=1;fontSize=12;glass=0;strokeWidth=1;shadow=0;" parent="WIyWlLk6GJQsqaUBKTNV-1" vertex="1">
          <mxGeometry x="386.5" y="1000" width="120" height="40" as="geometry" />
        </mxCell>
        <mxCell id="9yJzk4kOrjAoIO8Awk0b-21" style="edgeStyle=orthogonalEdgeStyle;rounded=0;orthogonalLoop=1;jettySize=auto;html=1;exitX=0.5;exitY=1;exitDx=0;exitDy=0;entryX=0.5;entryY=0;entryDx=0;entryDy=0;" edge="1" parent="WIyWlLk6GJQsqaUBKTNV-1" source="dsBlmj7pCga_AARecVS5-89" target="dsBlmj7pCga_AARecVS5-104">
          <mxGeometry relative="1" as="geometry" />
        </mxCell>
        <mxCell id="9yJzk4kOrjAoIO8Awk0b-36" style="edgeStyle=orthogonalEdgeStyle;rounded=0;orthogonalLoop=1;jettySize=auto;html=1;exitX=1;exitY=0.5;exitDx=0;exitDy=0;entryX=0.5;entryY=0;entryDx=0;entryDy=0;" edge="1" parent="WIyWlLk6GJQsqaUBKTNV-1" source="dsBlmj7pCga_AARecVS5-89" target="dsBlmj7pCga_AARecVS5-152">
          <mxGeometry relative="1" as="geometry" />
        </mxCell>
        <mxCell id="dsBlmj7pCga_AARecVS5-89" value="&lt;div&gt;wiperam&lt;/div&gt;&lt;div&gt;== skip&lt;/div&gt;" style="rhombus;whiteSpace=wrap;html=1;" parent="WIyWlLk6GJQsqaUBKTNV-1" vertex="1">
          <mxGeometry x="406.5" y="1080" width="80" height="80" as="geometry" />
        </mxCell>
        <mxCell id="dsBlmj7pCga_AARecVS5-100" value="no" style="text;html=1;align=center;verticalAlign=middle;resizable=0;points=[];autosize=1;strokeColor=none;fillColor=none;" parent="WIyWlLk6GJQsqaUBKTNV-1" vertex="1">
          <mxGeometry x="406.5" y="1150" width="40" height="30" as="geometry" />
        </mxCell>
        <mxCell id="dsBlmj7pCga_AARecVS5-102" value="&lt;div&gt;yes&lt;/div&gt;" style="text;html=1;align=center;verticalAlign=middle;resizable=0;points=[];autosize=1;strokeColor=none;fillColor=none;" parent="WIyWlLk6GJQsqaUBKTNV-1" vertex="1">
          <mxGeometry x="489" y="1090" width="40" height="30" as="geometry" />
        </mxCell>
        <mxCell id="9yJzk4kOrjAoIO8Awk0b-22" style="edgeStyle=orthogonalEdgeStyle;rounded=0;orthogonalLoop=1;jettySize=auto;html=1;exitX=0.5;exitY=1;exitDx=0;exitDy=0;entryX=0.5;entryY=0;entryDx=0;entryDy=0;" edge="1" parent="WIyWlLk6GJQsqaUBKTNV-1" source="dsBlmj7pCga_AARecVS5-104" target="dsBlmj7pCga_AARecVS5-106">
          <mxGeometry relative="1" as="geometry" />
        </mxCell>
        <mxCell id="dsBlmj7pCga_AARecVS5-104" value="RAM wipe pass" style="rounded=1;whiteSpace=wrap;html=1;fontSize=12;glass=0;strokeWidth=1;shadow=0;" parent="WIyWlLk6GJQsqaUBKTNV-1" vertex="1">
          <mxGeometry x="386.5" y="1190" width="120" height="40" as="geometry" />
        </mxCell>
        <mxCell id="dsBlmj7pCga_AARecVS5-113" style="edgeStyle=orthogonalEdgeStyle;rounded=0;orthogonalLoop=1;jettySize=auto;html=1;entryX=0.5;entryY=0;entryDx=0;entryDy=0;" parent="WIyWlLk6GJQsqaUBKTNV-1" source="dsBlmj7pCga_AARecVS5-106" target="dsBlmj7pCga_AARecVS5-112" edge="1">
          <mxGeometry relative="1" as="geometry" />
        </mxCell>
        <mxCell id="9yJzk4kOrjAoIO8Awk0b-38" style="edgeStyle=orthogonalEdgeStyle;rounded=0;orthogonalLoop=1;jettySize=auto;html=1;entryX=0;entryY=0.5;entryDx=0;entryDy=0;" edge="1" parent="WIyWlLk6GJQsqaUBKTNV-1" source="dsBlmj7pCga_AARecVS5-106" target="dsBlmj7pCga_AARecVS5-152">
          <mxGeometry relative="1" as="geometry" />
        </mxCell>
        <mxCell id="dsBlmj7pCga_AARecVS5-106" value="All encrypted disks&lt;br&gt; unmounted?" style="rhombus;whiteSpace=wrap;html=1;" parent="WIyWlLk6GJQsqaUBKTNV-1" vertex="1">
          <mxGeometry x="384" y="1260" width="125" height="124.5" as="geometry" />
        </mxCell>
        <mxCell id="dsBlmj7pCga_AARecVS5-111" value="yes" style="text;html=1;align=center;verticalAlign=middle;resizable=0;points=[];autosize=1;strokeColor=none;fillColor=none;" parent="WIyWlLk6GJQsqaUBKTNV-1" vertex="1">
          <mxGeometry x="500" y="1290" width="40" height="30" as="geometry" />
        </mxCell>
        <mxCell id="dsBlmj7pCga_AARecVS5-112" value="Print debug information" style="rounded=1;whiteSpace=wrap;html=1;fontSize=12;glass=0;strokeWidth=1;shadow=0;" parent="WIyWlLk6GJQsqaUBKTNV-1" vertex="1">
          <mxGeometry x="411.5" y="1420" width="70" height="40" as="geometry" />
        </mxCell>
        <mxCell id="dsBlmj7pCga_AARecVS5-115" value="no" style="text;html=1;align=center;verticalAlign=middle;resizable=0;points=[];autosize=1;strokeColor=none;fillColor=none;" parent="WIyWlLk6GJQsqaUBKTNV-1" vertex="1">
          <mxGeometry x="400" y="1384.5" width="40" height="30" as="geometry" />
        </mxCell>
        <mxCell id="dsBlmj7pCga_AARecVS5-118" value="Inside RAM disk" style="text;html=1;align=center;verticalAlign=middle;resizable=0;points=[];autosize=1;strokeColor=none;fillColor=none;" parent="WIyWlLk6GJQsqaUBKTNV-1" vertex="1">
          <mxGeometry x="270" y="979.5" width="110" height="30" as="geometry" />
        </mxCell>
        <mxCell id="dsBlmj7pCga_AARecVS5-130" style="edgeStyle=orthogonalEdgeStyle;rounded=0;orthogonalLoop=1;jettySize=auto;html=1;exitX=0.5;exitY=1;exitDx=0;exitDy=0;entryX=0.5;entryY=0;entryDx=0;entryDy=0;" parent="WIyWlLk6GJQsqaUBKTNV-1" source="dsBlmj7pCga_AARecVS5-128" target="dsBlmj7pCga_AARecVS5-75" edge="1">
          <mxGeometry relative="1" as="geometry" />
        </mxCell>
        <mxCell id="9yJzk4kOrjAoIO8Awk0b-37" style="edgeStyle=orthogonalEdgeStyle;rounded=0;orthogonalLoop=1;jettySize=auto;html=1;exitX=1;exitY=0.5;exitDx=0;exitDy=0;entryX=0.5;entryY=0;entryDx=0;entryDy=0;" edge="1" parent="WIyWlLk6GJQsqaUBKTNV-1" source="dsBlmj7pCga_AARecVS5-128" target="dsBlmj7pCga_AARecVS5-152">
          <mxGeometry relative="1" as="geometry" />
        </mxCell>
        <mxCell id="dsBlmj7pCga_AARecVS5-128" value="Does /run/initramfs/.need_shutdown exist?" style="rhombus;whiteSpace=wrap;html=1;" parent="WIyWlLk6GJQsqaUBKTNV-1" vertex="1">
          <mxGeometry x="364" y="780" width="165" height="80" as="geometry" />
        </mxCell>
        <mxCell id="dsBlmj7pCga_AARecVS5-133" value="no" style="text;html=1;align=center;verticalAlign=middle;resizable=0;points=[];autosize=1;strokeColor=none;fillColor=none;" parent="WIyWlLk6GJQsqaUBKTNV-1" vertex="1">
          <mxGeometry x="540" y="790" width="40" height="30" as="geometry" />
        </mxCell>
        <mxCell id="dsBlmj7pCga_AARecVS5-134" value="yes" style="text;html=1;align=center;verticalAlign=middle;resizable=0;points=[];autosize=1;strokeColor=none;fillColor=none;" parent="WIyWlLk6GJQsqaUBKTNV-1" vertex="1">
          <mxGeometry x="400" y="850" width="40" height="30" as="geometry" />
        </mxCell>
        <mxCell id="dsBlmj7pCga_AARecVS5-151" value="Power down" style="ellipse;whiteSpace=wrap;html=1;" parent="WIyWlLk6GJQsqaUBKTNV-1" vertex="1">
          <mxGeometry x="565.88" y="1520" width="70" height="40" as="geometry" />
        </mxCell>
        <mxCell id="9yJzk4kOrjAoIO8Awk0b-39" style="edgeStyle=orthogonalEdgeStyle;rounded=0;orthogonalLoop=1;jettySize=auto;html=1;exitX=0.5;exitY=1;exitDx=0;exitDy=0;entryX=0.5;entryY=0;entryDx=0;entryDy=0;" edge="1" parent="WIyWlLk6GJQsqaUBKTNV-1" source="dsBlmj7pCga_AARecVS5-152" target="dsBlmj7pCga_AARecVS5-151">
          <mxGeometry relative="1" as="geometry" />
        </mxCell>
        <mxCell id="dsBlmj7pCga_AARecVS5-152" value="Reboot/power off" style="rounded=1;whiteSpace=wrap;html=1;fontSize=12;glass=0;strokeWidth=1;shadow=0;" parent="WIyWlLk6GJQsqaUBKTNV-1" vertex="1">
          <mxGeometry x="570" y="1302.25" width="61.75" height="40" as="geometry" />
        </mxCell>
        <mxCell id="dsBlmj7pCga_AARecVS5-197" value="" style="strokeWidth=2;html=1;shape=mxgraph.flowchart.annotation_2;align=left;labelPosition=right;pointerEvents=1;rotation=-180;" parent="WIyWlLk6GJQsqaUBKTNV-1" vertex="1">
          <mxGeometry x="210.5" y="440" width="45" height="70" as="geometry" />
        </mxCell>
        <mxCell id="dsBlmj7pCga_AARecVS5-199" value="" style="strokeWidth=2;html=1;shape=mxgraph.flowchart.annotation_2;align=left;labelPosition=right;pointerEvents=1;rotation=-180;" parent="WIyWlLk6GJQsqaUBKTNV-1" vertex="1">
          <mxGeometry x="210.5" y="1199.75" width="45" height="70" as="geometry" />
        </mxCell>
        <mxCell id="dsBlmj7pCga_AARecVS5-201" value="Handled by&lt;br&gt;wipe-ram-needshutdown.sh" style="text;html=1;align=center;verticalAlign=middle;resizable=0;points=[];autosize=1;strokeColor=none;fillColor=default;" parent="WIyWlLk6GJQsqaUBKTNV-1" vertex="1">
          <mxGeometry x="60" y="454" width="170" height="40" as="geometry" />
        </mxCell>
        <mxCell id="dsBlmj7pCga_AARecVS5-202" value="Handled by&lt;br&gt;wipe-ram.sh" style="text;html=1;align=center;verticalAlign=middle;resizable=0;points=[];autosize=1;strokeColor=none;fillColor=default;" parent="WIyWlLk6GJQsqaUBKTNV-1" vertex="1">
          <mxGeometry x="140" y="1214.75" width="90" height="40" as="geometry" />
        </mxCell>
        <mxCell id="9yJzk4kOrjAoIO8Awk0b-28" style="edgeStyle=orthogonalEdgeStyle;rounded=0;orthogonalLoop=1;jettySize=auto;html=1;endArrow=none;endFill=0;dashed=1;dashPattern=8 8;" edge="1" parent="WIyWlLk6GJQsqaUBKTNV-1" source="dsBlmj7pCga_AARecVS5-197">
          <mxGeometry relative="1" as="geometry">
            <mxPoint x="360" y="475" as="targetPoint" />
            <Array as="points">
              <mxPoint x="360" y="475" />
            </Array>
          </mxGeometry>
        </mxCell>
        <mxCell id="9yJzk4kOrjAoIO8Awk0b-30" value="" style="rounded=0;whiteSpace=wrap;html=1;fillColor=none;dashed=1;dashPattern=8 8;" vertex="1" parent="WIyWlLk6GJQsqaUBKTNV-1">
          <mxGeometry x="360" y="1060" width="180" height="410" as="geometry" />
        </mxCell>
        <mxCell id="9yJzk4kOrjAoIO8Awk0b-34" style="edgeStyle=orthogonalEdgeStyle;rounded=0;orthogonalLoop=1;jettySize=auto;html=1;entryX=0.004;entryY=0.426;entryDx=0;entryDy=0;entryPerimeter=0;endArrow=none;endFill=0;dashed=1;dashPattern=8 8;" edge="1" parent="WIyWlLk6GJQsqaUBKTNV-1" source="dsBlmj7pCga_AARecVS5-199" target="9yJzk4kOrjAoIO8Awk0b-30">
          <mxGeometry relative="1" as="geometry">
            <Array as="points">
              <mxPoint x="350" y="1235" />
              <mxPoint x="350" y="1235" />
            </Array>
          </mxGeometry>
        </mxCell>
      </root>
    </mxGraphModel>
  </diagram>
</mxfile>
